<svg width="100" height="30" viewBox="0 0 100 30" fill="none" xmlns="http://www.w3.org/2000/svg">
<path d="M22.7525 27.2985C23.0357 27.1888 23.2623 27.0242 23.2623 26.8048C23.2623 25.7076 21.7897 24.9945 21.7897 19.6733V9.08591C21.7897 3.38077 19.1278 0.253906 12.0481 0.253906C7.68704 0.253906 2.07996 1.57048 2.07996 2.83219C2.07996 3.05162 2.1366 3.27105 2.24988 3.49048L3.38262 6.83676C3.43926 7.05619 3.66581 7.38534 3.94899 7.38534C4.68527 7.38534 7.80032 5.73962 10.972 5.73962C14.5401 5.73962 14.9932 7.33048 14.9932 9.79905V11.4996C10.5189 11.4996 0.210938 11.4996 0.210938 20.7705C0.210938 25.9271 3.49589 29.2185 8.70651 29.2185C12.9543 29.2185 14.9366 27.0242 16.0693 25.9271C16.3525 27.2985 17.2021 29.2185 17.7118 29.2185C17.9384 29.2185 18.2216 29.0539 18.4481 28.9991L22.7525 27.2985ZM14.9932 22.0322C14.3136 22.6905 12.841 24.1168 10.7455 24.1168C8.59324 24.1168 7.0074 22.5259 7.0074 20.3865C7.0074 15.5591 13.5773 15.9979 14.9932 15.9979V22.0322Z" fill="white"/>
<path d="M48.7213 23.6779C48.778 23.5682 48.9479 23.3488 48.9479 23.0745C48.9479 22.9099 48.9479 22.5259 47.8718 22.5259H34.9585L47.7585 6.01391V1.73505C47.7585 1.40591 47.2488 1.18648 46.7957 1.18648H28.8417C28.2187 1.18648 28.0488 1.40591 28.0488 1.95448V6.23334C28.0488 6.61734 28.162 6.94648 28.4452 6.94648H39.8859L26.8594 23.6231V27.7373C26.8594 28.0665 27.0859 28.2859 27.4257 28.2859H46.2859C46.5125 28.2859 46.9089 28.0116 47.0788 27.5728L48.7213 23.6779ZM64.2842 23.7328C60.3195 23.7328 59.6399 19.8379 59.6399 14.7362C59.6399 9.63448 60.3762 5.73962 64.2842 5.73962C68.1921 5.73962 68.9284 9.63448 68.9284 14.7362C68.9284 19.8928 68.2488 23.7328 64.2842 23.7328ZM76.5744 14.7362C76.5744 5.90419 71.8735 0.253906 64.2842 0.253906C56.6381 0.253906 51.9939 5.90419 51.9939 14.7362C51.9939 23.5682 56.6381 29.2185 64.2842 29.2185C71.9302 29.2185 76.5744 23.5682 76.5744 14.7362ZM90.1421 9.19562C90.8784 8.42762 92.6908 6.56248 94.4465 6.56248C95.7492 6.56248 96.7687 7.16591 97.1085 7.16591C97.335 7.16591 97.5049 6.83676 97.5616 6.67219L99.3173 2.06419C99.374 1.95448 99.4306 1.73505 99.4306 1.51562C99.4306 0.802477 97.7881 0.253906 96.1457 0.253906C92.2943 0.253906 90.1988 3.32591 89.1227 4.58762C88.8395 2.72248 87.7067 0.253906 87.0271 0.253906C86.8005 0.253906 86.5173 0.418479 86.2908 0.473335L81.9864 2.17391C81.7032 2.28362 81.4766 2.44819 81.4766 2.66762C81.4766 3.92934 82.9492 4.91677 82.9492 10.9511V27.5179C82.9492 28.1213 83.0625 28.2859 83.7421 28.2859H89.3492C90.0288 28.2859 90.1421 28.1213 90.1421 27.5179V9.19562Z" fill="white"/>
</svg>
