<svg width="16" height="16" viewBox="0 0 16 16" fill="none" xmlns="http://www.w3.org/2000/svg">
<path d="M15.2688 7.56564C15.2883 7.40612 15.2739 7.24428 15.2267 7.09068C15.1794 6.93707 15.1003 6.79517 14.9945 6.67422C14.8874 6.55231 14.7555 6.45461 14.6078 6.38761C14.46 6.32061 14.2996 6.28585 14.1373 6.28564H1.86304C1.70077 6.28585 1.54041 6.32061 1.39262 6.38761C1.24483 6.45461 1.113 6.55231 1.0059 6.67422C0.900073 6.79517 0.820946 6.93707 0.773683 7.09068C0.72642 7.24428 0.712085 7.40612 0.731613 7.56564L1.58876 14.4228C1.62244 14.7015 1.75757 14.9581 1.96835 15.1436C2.17914 15.3291 2.45084 15.4305 2.73161 15.4285H13.2916C13.5724 15.4305 13.8441 15.3291 14.0549 15.1436C14.2657 14.9581 14.4008 14.7015 14.4345 14.4228L15.2688 7.56564Z" stroke="#232F3E" stroke-linecap="round" stroke-linejoin="round"/>
<path d="M2.85742 6.2857V5.71427C2.85742 4.3503 3.39926 3.04219 4.36373 2.07772C5.3282 1.11325 6.63631 0.571411 8.00028 0.571411C9.36425 0.571411 10.6724 1.11325 11.6368 2.07772C12.6013 3.04219 13.1431 4.3503 13.1431 5.71427V6.2857" stroke="#232F3E" stroke-linecap="round" stroke-linejoin="round"/>
<path d="M5.71436 9.71423V11.9999" stroke="#232F3E" stroke-linecap="round" stroke-linejoin="round"/>
<path d="M10.2861 9.71423V11.9999" stroke="#232F3E" stroke-linecap="round" stroke-linejoin="round"/>
</svg>
