<svg  width="16" height="16" viewBox="0 0 16 16" fill="none" xmlns="http://www.w3.org/2000/svg">
<path d="M14.8572 7.42859H10.2858C9.97019 7.42859 9.71436 7.68443 9.71436 8.00002V14.8572C9.71436 15.1728 9.97019 15.4286 10.2858 15.4286H14.8572C15.1728 15.4286 15.4286 15.1728 15.4286 14.8572V8.00002C15.4286 7.68443 15.1728 7.42859 14.8572 7.42859Z" stroke="#232F3E" stroke-linecap="round" stroke-linejoin="round"/>
<path d="M14.8572 0.571411H10.2858C9.97019 0.571411 9.71436 0.827248 9.71436 1.14284V3.43998C9.71436 3.75557 9.97019 4.01141 10.2858 4.01141H14.8572C15.1728 4.01141 15.4286 3.75557 15.4286 3.43998V1.14284C15.4286 0.827248 15.1728 0.571411 14.8572 0.571411Z" stroke="#232F3E" stroke-linecap="round" stroke-linejoin="round"/>
<path d="M5.71415 0.571411H1.14272C0.827126 0.571411 0.571289 0.827248 0.571289 1.14284V7.99998C0.571289 8.31557 0.827126 8.57141 1.14272 8.57141H5.71415C6.02974 8.57141 6.28557 8.31557 6.28557 7.99998V1.14284C6.28557 0.827248 6.02974 0.571411 5.71415 0.571411Z" stroke="#232F3E" stroke-linecap="round" stroke-linejoin="round"/>
<path d="M5.71415 11.9885H1.14272C0.827126 11.9885 0.571289 12.2444 0.571289 12.56V14.8571C0.571289 15.1727 0.827126 15.4285 1.14272 15.4285H5.71415C6.02974 15.4285 6.28557 15.1727 6.28557 14.8571V12.56C6.28557 12.2444 6.02974 11.9885 5.71415 11.9885Z" stroke="#232F3E" stroke-linecap="round" stroke-linejoin="round"/>
</svg>
