<svg width="16" height="16" viewBox="0 0 16 16" fill="none" xmlns="http://www.w3.org/2000/svg">
<path d="M9.71415 0.571411H1.71415C1.41104 0.571411 1.12035 0.691819 0.906024 0.906146C0.691697 1.12047 0.571289 1.41116 0.571289 1.71427V14.2857C0.571289 14.5888 0.691697 14.8795 0.906024 15.0938C1.12035 15.3081 1.41104 15.4286 1.71415 15.4286H14.2856C14.5887 15.4286 14.8794 15.3081 15.0937 15.0938C15.308 14.8795 15.4284 14.5888 15.4284 14.2857V6.2857L9.71415 0.571411Z" stroke="#232F3E" stroke-linecap="round" stroke-linejoin="round"/>
<path d="M9.71436 5.71427V0.571411L15.4286 6.2857H10.2858C10.1342 6.2857 9.98889 6.22549 9.88172 6.11833C9.77456 6.01117 9.71436 5.86582 9.71436 5.71427Z" stroke="#232F3E" stroke-linecap="round" stroke-linejoin="round"/>
<path d="M5.14258 5.14287V3.42859" stroke="#232F3E" stroke-linecap="round" stroke-linejoin="round"/>
<path d="M3.42822 9.71425C3.42822 10.5714 4.19394 10.8571 5.14251 10.8571C6.09108 10.8571 6.85679 10.8571 6.85679 9.71425C6.85679 7.99997 3.42822 7.99997 3.42822 6.28568C3.42822 5.14282 4.19394 5.14282 5.14251 5.14282C6.09108 5.14282 6.85679 5.57711 6.85679 6.28568" stroke="#232F3E" stroke-linecap="round" stroke-linejoin="round"/>
<path d="M5.14258 10.8572V12.5715" stroke="#232F3E" stroke-linecap="round" stroke-linejoin="round"/>
<path d="M9.71436 10.8572H13.1429" stroke="#232F3E" stroke-linecap="round" stroke-linejoin="round"/>
</svg>
