<svg width="16" height="16" viewBox="0 0 16 16" fill="none" xmlns="http://www.w3.org/2000/svg">
<path d="M13.7141 8.57139V6.28568C13.7141 5.98257 13.5937 5.69188 13.3794 5.47756C13.1651 5.26323 12.8744 5.14282 12.5713 5.14282H1.71415C1.41104 5.14282 1.12035 5.26323 0.906024 5.47756C0.691697 5.69188 0.571289 5.98257 0.571289 6.28568V14.2857C0.571289 14.5888 0.691697 14.8795 0.906024 15.0938C1.12035 15.3081 1.41104 15.4285 1.71415 15.4285H12.5713C12.8744 15.4285 13.1651 15.3081 13.3794 15.0938C13.5937 14.8795 13.7141 14.5888 13.7141 14.2857V11.4285" stroke="#232F3E" stroke-linecap="round" stroke-linejoin="round"/>
<path d="M4.38867 2.28566L10.8687 0.594229C10.9415 0.573712 11.0177 0.568163 11.0927 0.577914C11.1677 0.587665 11.24 0.612516 11.3052 0.650966C11.3703 0.689416 11.427 0.740668 11.4718 0.801629C11.5166 0.86259 11.5486 0.931996 11.5658 1.00566L11.8858 2.28566" stroke="#232F3E" stroke-linecap="round" stroke-linejoin="round"/>
<path d="M14.8568 8.57141H11.9997C11.6841 8.57141 11.4282 8.82725 11.4282 9.14284V10.8571C11.4282 11.1727 11.6841 11.4286 11.9997 11.4286H14.8568C15.1724 11.4286 15.4282 11.1727 15.4282 10.8571V9.14284C15.4282 8.82725 15.1724 8.57141 14.8568 8.57141Z" stroke="#232F3E" stroke-linecap="round" stroke-linejoin="round"/>
</svg>
